<svg width="32" height="32" viewBox="0 0 32 32" fill="none" xmlns="http://www.w3.org/2000/svg">
<path d="M15.9998 29.3333C8.65317 29.3333 2.6665 23.3467 2.6665 16C2.6665 8.65335 8.65317 2.66668 15.9998 2.66668C23.3465 2.66668 29.3332 8.65335 29.3332 16C29.3332 23.3467 23.3465 29.3333 15.9998 29.3333ZM14.9998 21.3333C14.9998 21.88 15.4532 22.3333 15.9998 22.3333C16.5465 22.3333 16.9998 21.88 16.9998 21.3333V14.6667C16.9998 14.12 16.5465 13.6667 15.9998 13.6667C15.4532 13.6667 14.9998 14.12 14.9998 14.6667V21.3333ZM17.2265 10.16C17.1598 9.98668 17.0665 9.85335 16.9465 9.72001C16.8132 9.60001 16.6665 9.50668 16.5065 9.44001C16.3465 9.37334 16.1732 9.33335 15.9998 9.33335C15.8265 9.33335 15.6532 9.37334 15.4932 9.44001C15.3332 9.50668 15.1865 9.60001 15.0532 9.72001C14.9332 9.85335 14.8398 9.98668 14.7732 10.16C14.7065 10.32 14.6665 10.4933 14.6665 10.6667C14.6665 10.84 14.7065 11.0133 14.7732 11.1733C14.8398 11.3333 14.9332 11.48 15.0532 11.6133C15.1865 11.7333 15.3332 11.8267 15.4932 11.8933C15.8132 12.0267 16.1865 12.0267 16.5065 11.8933C16.6665 11.8267 16.8132 11.7333 16.9465 11.6133C17.0665 11.48 17.1598 11.3333 17.2265 11.1733C17.2932 11.0133 17.3332 10.84 17.3332 10.6667C17.3332 10.4933 17.2932 10.32 17.2265 10.16Z" fill="#206A20"/>
</svg>
